<svg xmlns="http://www.w3.org/2000/svg" width="83.981" height="70.454" viewBox="0 0 83.981 70.454">
  <g id="Group_10367" data-name="Group 10367" transform="translate(0 0)">
    <path id="Path_4750" data-name="Path 4750" d="M316.847,208.5q-.648-.041-1.31-.04c-.469,0-.932.016-1.394.046a21.663,21.663,0,0,0-19.524,27.1c.051.193.105.386.161.575A21.63,21.63,0,1,0,316.847,208.5Zm-1.31,40.513a18.927,18.927,0,0,1-18.3-14.095c-.031-.12-.062-.239-.091-.362A18.939,18.939,0,0,1,315.5,211.161h.042a18.925,18.925,0,1,1,0,37.85Zm0,0" transform="translate(-253.186 -181.267)" fill="#ac51d6"/>
    <path id="Path_4751" data-name="Path 4751" d="M390.236,287.137a1.351,1.351,0,0,0-1.842,0l-6.759,6.291a1.352,1.352,0,1,0,1.842,1.978l4.486-4.175V304.47a1.352,1.352,0,1,0,2.7,0V291.231l4.486,4.175a1.352,1.352,0,1,0,1.842-1.978Zm0,0" transform="translate(-326.963 -247.48)" fill="#ad55d6"/>
    <path id="Path_4752" data-name="Path 4752" d="M175.225,40.536h.011a3.78,3.78,0,0,0,3.776-3.766v-.013a3.78,3.78,0,0,0-3.766-3.778h-.011a3.778,3.778,0,0,0-.011,7.556ZM174.478,36a1.067,1.067,0,0,1,.759-.313h0a1.075,1.075,0,0,1,0,2.149h0A1.074,1.074,0,0,1,174.478,36Zm0,0" transform="translate(-149.653 -32.913)" fill="#1ae5be"/>
    <path id="Path_4753" data-name="Path 4753" d="M104.756,32.754h-.014a3.778,3.778,0,0,0-2.678,6.442,3.738,3.738,0,0,0,2.666,1.114h.014a3.778,3.778,0,1,0,.012-7.556Zm-.014,4.853h0a1.075,1.075,0,0,1,0-2.149h0a1.075,1.075,0,0,1,0,2.149Zm0,0" transform="translate(-90.059 -32.721)" fill="#1ae5be"/>
    <path id="Path_4754" data-name="Path 4754" d="M37.969,36.332A3.781,3.781,0,0,0,34.2,32.543H34.19a3.778,3.778,0,0,0-.011,7.557h.011A3.785,3.785,0,0,0,37.969,36.332ZM34.19,37.4h0a1.075,1.075,0,0,1,0-2.149h0a1.075,1.075,0,0,1,0,2.149Zm0,0" transform="translate(-30.406 -32.543)" fill="#1ae5be"/>
  </g>
</svg>
